<svg width="24" height="24" viewBox="0 0 24 24" fill="none" xmlns="http://www.w3.org/2000/svg">
<path fill-rule="evenodd" clip-rule="evenodd" d="M19.4407 4.55051C18.4699 3.57929 17.3166 2.80967 16.0473 2.28596C14.7779 1.76224 13.4174 1.49477 12.0443 1.49895C6.28145 1.49895 1.5902 6.16676 1.58785 11.9052C1.58531 13.7324 2.06696 15.5277 2.98379 17.1083L1.5002 22.4989L7.04316 21.0519C8.57748 21.8831 10.295 22.3181 12.04 22.3175H12.0443C17.8066 22.3175 22.4974 17.6493 22.5002 11.9113C22.5037 10.5428 22.235 9.18728 21.7097 7.9236C21.1845 6.65993 20.4132 5.51332 19.4407 4.55051ZM12.0443 20.5611H12.0405C10.4849 20.5616 8.95759 20.1453 7.61738 19.3555L7.30004 19.168L4.01082 20.0268L4.88879 16.835L4.68207 16.5069C3.81225 15.1298 3.35141 13.534 3.35317 11.9052C3.35317 7.1366 7.25363 3.25676 12.0475 3.25676C14.3472 3.25265 16.5544 4.16217 18.1835 5.78525C19.8127 7.40834 20.7304 9.61208 20.7349 11.9118C20.733 16.6808 16.8344 20.5611 12.0443 20.5611ZM16.811 14.0835C16.5499 13.9532 15.2641 13.3241 15.026 13.2374C14.7878 13.1507 14.6121 13.1071 14.4382 13.3677C14.2643 13.6283 13.7632 14.2114 13.6108 14.3872C13.4585 14.563 13.3061 14.5822 13.045 14.4519C12.7839 14.3216 11.9416 14.0474 10.9436 13.1614C10.1669 12.4719 9.64285 11.6207 9.49051 11.3605C9.33816 11.1004 9.4741 10.9593 9.60488 10.8299C9.72254 10.7132 9.86597 10.5261 9.99676 10.3743C10.1275 10.2224 10.1711 10.1136 10.2578 9.9402C10.3446 9.76676 10.3014 9.61488 10.2363 9.48504C10.1711 9.3552 9.64848 8.07504 9.43098 7.55426C9.21863 7.04707 9.00348 7.11598 8.84316 7.10801C8.69082 7.10051 8.51504 7.09863 8.34207 7.09863C8.20984 7.10208 8.07974 7.13274 7.95989 7.18871C7.84004 7.24468 7.73302 7.32476 7.64551 7.42395C7.40598 7.68457 6.73098 8.31457 6.73098 9.59332C6.73098 10.8721 7.66848 12.1096 7.79785 12.283C7.92723 12.4564 9.64004 15.0829 12.2608 16.2093C12.7475 16.4177 13.2447 16.6004 13.7505 16.7568C14.3763 16.9546 14.9458 16.9269 15.3958 16.8599C15.8978 16.7853 16.9427 16.2308 17.1597 15.6233C17.3768 15.0158 17.3772 14.4955 17.3121 14.3872C17.2469 14.2789 17.0725 14.2133 16.811 14.0835Z" fill="white"/>
</svg>
