<?xml version="1.0" encoding="utf-8"?>
<!-- Generator: Adobe Illustrator 25.4.1, SVG Export Plug-In . SVG Version: 6.00 Build 0)  -->
<svg version="1.1" id="Layer_1" xmlns="http://www.w3.org/2000/svg" xmlns:xlink="http://www.w3.org/1999/xlink" x="0px" y="0px"
	 viewBox="0 0 88 20" style="enable-background:new 0 0 88 20;" xml:space="preserve">
<style type="text/css">
	.st0{fill:none;}
	.st1{fill:#F5F7FC;}
</style>
<rect x="6.49" y="6.24" class="st0" width="12.56" height="12.56"/>
<rect x="22.28" y="2.75" class="st0" width="3.35" height="15.89"/>
<rect x="28.25" y="6.82" class="st0" width="7.14" height="11.85"/>
<rect x="38.21" y="6.31" class="st0" width="11.84" height="12.47"/>
<rect x="52.84" y="6.31" class="st0" width="11.84" height="12.47"/>
<g>
	<g>
		<path class="st1" d="M19.05,12.53c0,0,0-0.01,0-0.01c0,0,0-0.01,0-0.01v-0.03c0-0.17-0.01-0.33-0.02-0.49l-3.16,3.37
			c-0.76,0.85-1.87,1.39-3.1,1.39c-2.29,0-4.14-1.85-4.14-4.14c0-2.29,1.85-4.14,4.14-4.14c1.85,0,3.41,1.21,3.95,2.88l1.62-1.73
			c-1.05-2.01-3.15-3.37-5.57-3.37c-3.47,0-6.28,2.81-6.28,6.28s2.81,6.28,6.28,6.28c1.47,0,2.82-0.5,3.89-1.35v1.12h2.39V12.53z"/>
	</g>
	<g>
		<path class="st1" d="M25,7.37h-2.26v11.26H25V7.37z"/>
		<path class="st1" d="M23.96,6.1c0.93,0,1.68-0.75,1.68-1.68s-0.75-1.68-1.68-1.68c-0.93,0-1.68,0.75-1.68,1.68
			S23.03,6.1,23.96,6.1z"/>
	</g>
	<g>
		<path class="st1" d="M31.56,13.23c0.17,0.11,0.32,0.21,0.46,0.3l1.61-1.63c-0.35-0.25-0.77-0.51-1.27-0.78
			c-0.49-0.31-0.8-0.54-0.94-0.67c-0.15-0.15-0.23-0.34-0.23-0.56c0-0.22,0.08-0.41,0.23-0.56c0.16-0.16,0.34-0.24,0.56-0.24
			c0.22,0,0.39,0.07,0.53,0.2c0.05,0.06,0.1,0.18,0.15,0.36l2.2-0.63c-0.11-0.5-0.36-0.94-0.77-1.35c-0.56-0.57-1.27-0.85-2.11-0.85
			s-1.57,0.3-2.17,0.9c-0.6,0.6-0.9,1.33-0.9,2.17c0,0.84,0.3,1.56,0.9,2.16C30.16,12.39,30.74,12.79,31.56,13.23z"/>
		<path class="st1" d="M32.74,15.98c-0.01,0.01-0.01,0.01-0.02,0.02c-0.01,0.01-0.01,0.01-0.02,0.02l-0.03,0.03l0,0
			c-0.26,0.23-0.56,0.35-0.91,0.35c-0.37,0-0.69-0.13-0.96-0.39c-0.14-0.14-0.24-0.38-0.31-0.71l-2.25,0.48
			c0.15,0.73,0.47,1.34,0.96,1.83c0.71,0.72,1.56,1.07,2.56,1.07c1.01,0,1.86-0.36,2.57-1.07c0.7-0.71,1.06-1.57,1.06-2.58
			c0-0.5-0.09-0.97-0.28-1.4L32.74,15.98z"/>
	</g>
	<g>
		<path class="st1" d="M47.79,14.63c-0.29,0.35-0.49,0.58-0.58,0.68c-0.77,0.76-1.69,1.14-2.77,1.14c-1,0-1.69-0.17-2.07-0.5
			l5.96-5.96l1.14-1.15c-0.34-0.39-0.55-0.62-0.62-0.69c-0.18-0.18-0.35-0.34-0.54-0.49c-1.11-0.89-2.4-1.34-3.87-1.34
			c-1.71,0-3.18,0.61-4.4,1.83c-1.22,1.22-1.83,2.69-1.83,4.41c0,1.72,0.61,3.19,1.83,4.41c1.22,1.22,2.68,1.83,4.4,1.83
			c1.72,0,3.19-0.61,4.41-1.83c0.25-0.25,0.65-0.75,1.2-1.52L47.79,14.63z M40.54,12.55c0-1.08,0.38-2,1.14-2.76
			c0.76-0.76,1.68-1.06,2.75-1.14c0.69-0.05,1.46,0.1,1.72,0.3l-5.32,5.33C40.64,14,40.54,13.43,40.54,12.55z"/>
	</g>
	<g>
		<path class="st1" d="M62.41,14.63c-0.29,0.35-0.49,0.58-0.58,0.68c-0.77,0.76-1.69,1.14-2.77,1.14c-1,0-1.69-0.17-2.07-0.5
			l5.96-5.96l1.14-1.15c-0.34-0.39-0.55-0.62-0.62-0.69c-0.18-0.18-0.35-0.34-0.54-0.49c-1.11-0.89-2.4-1.34-3.87-1.34
			c-1.71,0-3.18,0.61-4.4,1.83c-1.22,1.22-1.83,2.69-1.83,4.41c0,1.72,0.61,3.19,1.83,4.41c1.22,1.22,2.68,1.83,4.4,1.83
			c1.72,0,3.19-0.61,4.41-1.83c0.25-0.25,0.65-0.75,1.2-1.52L62.41,14.63z M55.17,12.55c0-1.08,0.38-2,1.14-2.76
			c0.76-0.76,1.68-1.06,2.75-1.14c0.69-0.05,1.46,0.1,1.72,0.3l-5.32,5.33C55.27,14,55.17,13.43,55.17,12.55z"/>
	</g>
	<g>
		<path class="st1" d="M77.5,10.72l-0.57,0.61c-0.53-1.67-2.09-2.87-3.93-2.87c-2.28,0-4.13,1.85-4.13,4.13
			c0,2.28,1.85,4.13,4.13,4.13c1.23,0,2.33-0.54,3.08-1.39l3.15-3.36c0.01,0.16,0.02,0.32,0.02,0.49v0.03v0.01v0.01v6.02h-2.38
			v-1.12c-1.07,0.84-2.41,1.34-3.87,1.34c-3.45,0-6.25-2.8-6.25-6.25c0-3.45,2.8-6.26,6.25-6.26c1.52,0,2.91,0.54,3.99,1.44V1h2.38
			v7.81L77.5,10.72z"/>
		<path class="st1" d="M83.2,18.69c0.88,0,1.59-0.71,1.59-1.59c0-0.88-0.71-1.59-1.59-1.59c-0.88,0-1.59,0.71-1.59,1.59
			C81.62,17.98,82.33,18.69,83.2,18.69z"/>
	</g>
</g>
<rect x="66.73" y="1" class="st0" width="18.05" height="17.75"/>
</svg>
